<?xml version="1.0" encoding="UTF-8"?>
<svg xmlns="http://www.w3.org/2000/svg" xmlns:xlink="http://www.w3.org/1999/xlink" viewBox="0 0 1000 1120" width="1000" height="1120">
  <style>
    text { font-family: 'Comic Sans MS', cursive, sans-serif; }
    .title { font-size: 22px; font-weight: bold; fill: #333; }
    .subtitle { font-size: 12px; fill: #888; font-style: italic; }
    .label { font-size: 14px; fill: #555; font-weight: bold; }
    .speech { font-size: 11px; fill: #333; }
    .caption { font-size: 11px; fill: #888; font-style: italic; }
    .name { font-size: 13px; font-weight: bold; fill: #333; }
    .charge { font-size: 9px; fill: #D9534F; }
    .role { font-size: 9px; fill: #666; }
    a { cursor: pointer; }
  </style>
  
  <rect width="1000" height="1120" fill="#F5F5F0" rx="12"/>
  
  <!-- TITLE BLOCK -->
  <text x="500" y="40" text-anchor="middle" class="title">YELM COMMUNITY SCHOOLS — CAREER TRANSITION PROGRAM</text>
  <text x="500" y="62" text-anchor="middle" class="subtitle">"From Board Meetings to Yard Time: A Professional Development Journey"</text>
  
  <!-- ================================================ -->
  <!-- TOP PANEL: BEFORE -->
  <!-- ================================================ -->
  <rect x="25" y="85" width="950" height="280" fill="white" stroke="#DDD" rx="8"/>
  <text x="500" y="112" text-anchor="middle" class="label">BEFORE: "We investigated ourselves and found nothing wrong"</text>
  
  <!-- CHRIS - suit -->
  <g transform="translate(120, 130)">
    <circle cx="0" cy="30" r="20" fill="none" stroke="#333" stroke-width="2"/>
    <circle cx="-7" cy="27" r="2.5" fill="#333"/>
    <circle cx="7" cy="27" r="2.5" fill="#333"/>
    <path d="M-9,37 Q0,44 9,37" fill="none" stroke="#333" stroke-width="1.5"/>
    <path d="M-17,18 Q0,8 17,18" fill="none" stroke="#333" stroke-width="2"/>
    <rect x="-24" y="50" width="48" height="62" fill="#2C3E50" rx="3"/>
    <polygon points="0,50 -6,62 0,92 6,62" fill="#C0392B"/>
    <polygon points="-10,50 0,58 10,50" fill="white" stroke="#DDD"/>
    <rect x="-17" y="112" width="14" height="44" fill="#2C3E50" rx="2"/>
    <rect x="3" y="112" width="14" height="44" fill="#2C3E50" rx="2"/>
    <rect x="-19" y="154" width="18" height="6" fill="#111" rx="2"/>
    <rect x="1" y="154" width="18" height="6" fill="#111" rx="2"/>
    <line x1="-24" y1="62" x2="-40" y2="95" stroke="#2C3E50" stroke-width="6"/>
    <line x1="24" y1="62" x2="40" y2="95" stroke="#2C3E50" stroke-width="6"/>
    <rect x="34" y="88" width="22" height="16" fill="#8B4513" stroke="#5D2E0C" rx="2"/>
    <text x="0" y="180" text-anchor="middle" class="name">CHRIS</text>
    <text x="0" y="193" text-anchor="middle" class="role">Superintendent</text>
    <text x="0" y="206" text-anchor="middle" class="charge">"It's just a PRA request"</text>
  </g>
  
  <!-- LISA - suit -->
  <g transform="translate(310, 130)">
    <circle cx="0" cy="30" r="20" fill="none" stroke="#333" stroke-width="2"/>
    <circle cx="-7" cy="27" r="2.5" fill="#333"/>
    <circle cx="7" cy="27" r="2.5" fill="#333"/>
    <path d="M-8,37 Q0,42 8,37" fill="none" stroke="#333" stroke-width="1.5"/>
    <path d="M-18,20 Q-20,8 -10,14 Q0,4 10,14 Q20,8 18,20" fill="none" stroke="#333" stroke-width="2"/>
    <rect x="-24" y="50" width="48" height="60" fill="#4A235A" rx="3"/>
    <rect x="-8" y="50" width="16" height="22" fill="white" rx="1"/>
    <circle cx="0" cy="54" r="3" fill="#E8D44D" stroke="#B8860B"/>
    <polygon points="-24,110 -28,158 28,158 24,110" fill="#4A235A"/>
    <line x1="-10" y1="158" x2="-12" y2="178" stroke="#333" stroke-width="2"/>
    <line x1="10" y1="158" x2="12" y2="178" stroke="#333" stroke-width="2"/>
    <line x1="-24" y1="62" x2="-38" y2="92" stroke="#4A235A" stroke-width="6"/>
    <line x1="24" y1="62" x2="38" y2="92" stroke="#4A235A" stroke-width="6"/>
    <rect x="32" y="82" width="20" height="26" fill="#3498DB" stroke="#2471A3" rx="1"/>
    <text x="42" y="98" text-anchor="middle" fill="white" font-size="7">TITLE</text>
    <text x="42" y="106" text-anchor="middle" fill="white" font-size="6">IX</text>
    <text x="0" y="195" text-anchor="middle" class="name">LISA</text>
    <text x="0" y="208" text-anchor="middle" class="role">Title IX Coordinator</text>
    <text x="0" y="221" text-anchor="middle" class="charge">"Puyallup? I wrote Hispanic"</text>
  </g>
  
  <!-- HOLLY - suit -->
  <g transform="translate(500, 130)">
    <circle cx="0" cy="30" r="20" fill="none" stroke="#333" stroke-width="2"/>
    <circle cx="-7" cy="27" r="2.5" fill="#333"/>
    <circle cx="7" cy="27" r="2.5" fill="#333"/>
    <path d="M-8,37 Q0,42 8,37" fill="none" stroke="#333" stroke-width="1.5"/>
    <path d="M-18,16 Q-22,28 -18,42" fill="none" stroke="#333" stroke-width="2"/>
    <path d="M18,16 Q22,28 18,42" fill="none" stroke="#333" stroke-width="2"/>
    <path d="M-18,16 Q0,6 18,16" fill="none" stroke="#333" stroke-width="2"/>
    <rect x="-24" y="50" width="48" height="60" fill="#1E8449" rx="3"/>
    <rect x="-7" y="50" width="14" height="32" fill="#F5CBA7" rx="1"/>
    <line x1="-5" y1="50" x2="-5" y2="80" stroke="#E74C3C" stroke-width="2"/>
    <rect x="-9" y="77" width="10" height="12" fill="white" stroke="#333" rx="1"/>
    <text x="-4" y="86" text-anchor="middle" font-size="5" fill="#333">YCS</text>
    <rect x="-20" y="110" width="40" height="44" fill="#2C3E50" rx="2"/>
    <line x1="-8" y1="154" x2="-8" y2="176" stroke="#333" stroke-width="2"/>
    <line x1="8" y1="154" x2="8" y2="176" stroke="#333" stroke-width="2"/>
    <line x1="-24" y1="62" x2="-42" y2="88" stroke="#1E8449" stroke-width="6"/>
    <line x1="24" y1="62" x2="42" y2="85" stroke="#1E8449" stroke-width="6"/>
    <line x1="42" y1="85" x2="55" y2="78" stroke="#333" stroke-width="2"/>
    <text x="0" y="193" text-anchor="middle" class="name">HOLLY</text>
    <text x="0" y="206" text-anchor="middle" class="role">Principal</text>
    <text x="0" y="219" text-anchor="middle" class="charge">"Your son is the problem"</text>
  </g>
  
  <!-- DEEDEE - suit -->
  <g transform="translate(690, 130)">
    <circle cx="0" cy="30" r="20" fill="none" stroke="#333" stroke-width="2"/>
    <circle cx="-7" cy="27" r="2.5" fill="#333"/>
    <circle cx="7" cy="27" r="2.5" fill="#333"/>
    <path d="M-8,37 Q0,42 8,37" fill="none" stroke="#333" stroke-width="1.5"/>
    <path d="M-18,18 Q-15,6 0,10 Q15,6 18,18" fill="none" stroke="#333" stroke-width="2"/>
    <rect x="-24" y="50" width="48" height="60" fill="#922B21" rx="3"/>
    <rect x="-8" y="50" width="16" height="26" fill="white" rx="1"/>
    <rect x="-16" y="110" width="13" height="44" fill="#2C3E50" rx="2"/>
    <rect x="3" y="110" width="13" height="44" fill="#2C3E50" rx="2"/>
    <line x1="-24" y1="62" x2="-38" y2="92" stroke="#922B21" stroke-width="6"/>
    <line x1="24" y1="62" x2="40" y2="92" stroke="#922B21" stroke-width="6"/>
    <rect x="34" y="84" width="24" height="22" fill="#666" stroke="#333" rx="2"/>
    <text x="46" y="98" text-anchor="middle" fill="white" font-size="6">SHRED</text>
    <rect x="38" y="72" width="14" height="14" fill="white" stroke="#DDD" rx="1"/>
    <text x="45" y="82" text-anchor="middle" font-size="5" fill="#999">PRA</text>
    <text x="0" y="180" text-anchor="middle" class="name">DEEDEE</text>
    <text x="0" y="193" text-anchor="middle" class="role">HR Director</text>
    <text x="0" y="206" text-anchor="middle" class="charge">"What records?"</text>
  </g>
  
  <!-- KURT - suit -->
  <g transform="translate(880, 130)">
    <circle cx="0" cy="30" r="20" fill="none" stroke="#333" stroke-width="2"/>
    <circle cx="-7" cy="27" r="2.5" fill="#333"/>
    <circle cx="7" cy="27" r="2.5" fill="#333"/>
    <path d="M-8,37 Q0,42 8,37" fill="none" stroke="#333" stroke-width="1.5"/>
    <circle cx="-7" cy="27" r="6" fill="none" stroke="#333" stroke-width="1"/>
    <circle cx="7" cy="27" r="6" fill="none" stroke="#333" stroke-width="1"/>
    <line x1="-1" y1="27" x2="1" y2="27" stroke="#333" stroke-width="1"/>
    <path d="M-15,17 Q0,10 15,17" fill="none" stroke="#333" stroke-width="1.5"/>
    <rect x="-24" y="50" width="48" height="60" fill="#5DADE2" rx="3"/>
    <circle cx="0" cy="62" r="2.5" fill="white"/>
    <circle cx="0" cy="74" r="2.5" fill="white"/>
    <circle cx="0" cy="86" r="2.5" fill="white"/>
    <rect x="-16" y="110" width="13" height="44" fill="#D4AC6E" rx="2"/>
    <rect x="3" y="110" width="13" height="44" fill="#D4AC6E" rx="2"/>
    <line x1="-24" y1="62" x2="-40" y2="90" stroke="#5DADE2" stroke-width="6"/>
    <line x1="24" y1="62" x2="40" y2="90" stroke="#5DADE2" stroke-width="6"/>
    <rect x="-48" y="80" width="24" height="16" fill="#E8D44D" stroke="#B8860B" rx="2"/>
    <text x="-36" y="91" text-anchor="middle" font-size="6" fill="#333">GRANTS</text>
    <rect x="30" y="80" width="28" height="16" fill="#E74C3C" stroke="#922B21" rx="2"/>
    <text x="44" y="89" text-anchor="middle" font-size="5" fill="white">INVEST-</text>
    <text x="44" y="95" text-anchor="middle" font-size="5" fill="white">IGATOR</text>
    <text x="0" y="180" text-anchor="middle" class="name">KURT</text>
    <text x="0" y="193" text-anchor="middle" class="role">Grants Dir. / "Investigator"</text>
    <text x="0" y="206" text-anchor="middle" class="charge">of His Own Grants</text>
  </g>

  <!-- BIG ARROW DOWN -->
  <polygon points="500,375 465,375 500,405 535,375" fill="#D9534F"/>
  <text x="450" y="393" text-anchor="end" font-size="13" fill="#D9534F" font-weight="bold">RCW 40.16.020 ★ 18 U.S.C. § 1519 ★ PERJURY</text>
  
  <!-- ================================================ -->
  <!-- BOTTOM PANEL: AFTER -->
  <!-- ================================================ -->
  <rect x="25" y="415" width="950" height="600" fill="white" stroke="#DDD" rx="8"/>
  <text x="500" y="450" text-anchor="middle" class="label">AFTER: "Welcome to the Yelm Community Schools Vocational Arts Program"</text>
  
  <!-- Prison bars background -->
  <g opacity="0.05">
    <line x1="45" y1="460" x2="45" y2="990" stroke="#333" stroke-width="8"/>
    <line x1="85" y1="460" x2="85" y2="990" stroke="#333" stroke-width="8"/>
    <line x1="915" y1="460" x2="915" y2="990" stroke="#333" stroke-width="8"/>
    <line x1="955" y1="460" x2="955" y2="990" stroke="#333" stroke-width="8"/>
  </g>
  
  <!-- ===== CHRIS — HIB ===== -->
  <g transform="translate(120, 600)">
    <!-- Speech bubble - clears panel title -->
    <rect x="-40" y="-80" width="80" height="36" fill="white" stroke="#333" rx="10" stroke-width="1.5"/>
    <polygon points="0,-44 -8,-44 0,-32" fill="white" stroke="#333" stroke-width="1.5"/>
    <text x="0" y="-56" text-anchor="middle" font-size="22" fill="#333" font-weight="bold">HIB</text>
    
    <!-- Head - sad -->
    <circle cx="0" cy="30" r="20" fill="none" stroke="#333" stroke-width="2"/>
    <circle cx="-7" cy="26" r="2.5" fill="#333"/>
    <circle cx="7" cy="26" r="2.5" fill="#333"/>
    <line x1="-12" y1="18" x2="-4" y2="21" stroke="#333" stroke-width="1.5"/>
    <line x1="4" y1="21" x2="12" y2="18" stroke="#333" stroke-width="1.5"/>
    <path d="M-10,40 Q0,34 10,40" fill="none" stroke="#333" stroke-width="2"/>
    <!-- Orange jumpsuit -->
    <rect x="-26" y="50" width="52" height="65" fill="#E67E22" stroke="#D35400" rx="3"/>
    <rect x="-18" y="55" width="36" height="13" fill="white" rx="1"/>
    <text x="0" y="64" text-anchor="middle" font-size="8" fill="#333">DOC #YCS-001</text>
    <rect x="-18" y="115" width="15" height="46" fill="#E67E22" stroke="#D35400" rx="2"/>
    <rect x="3" y="115" width="15" height="46" fill="#E67E22" stroke="#D35400" rx="2"/>
    <rect x="-20" y="160" width="18" height="5" fill="#8B4513" rx="1"/>
    <rect x="3" y="160" width="18" height="5" fill="#8B4513" rx="1"/>
    <!-- Arms + toothbrush shank -->
    <line x1="-26" y1="68" x2="-42" y2="98" stroke="#E67E22" stroke-width="6"/>
    <line x1="26" y1="68" x2="50" y2="88" stroke="#E67E22" stroke-width="6"/>
    <rect x="46" y="82" width="32" height="6" fill="#5DADE2" rx="1"/>
    <polygon points="78,82 88,85 78,88" fill="#CCC" stroke="#999"/>
    <text x="64" y="76" font-size="7" fill="#999">toothbrush shank</text>
    <text x="0" y="182" text-anchor="middle" class="name">CHRIS</text>
    <text x="0" y="196" text-anchor="middle" class="charge">18 U.S.C. § 1519</text>
    <text x="0" y="208" text-anchor="middle" class="charge">Records destruction</text>
  </g>
  
  <!-- ===== LISA — ANGRY ===== -->
  <g transform="translate(310, 600)">
    <!-- Speech bubble -->
    <rect x="-70" y="-80" width="140" height="46" fill="white" stroke="#333" rx="10" stroke-width="1.5"/>
    <polygon points="0,-34 -8,-34 0,-22" fill="white" stroke="#333" stroke-width="1.5"/>
    <text x="0" y="-60" text-anchor="middle" class="speech">"14 years on Makah Rez</text>
    <text x="0" y="-46" text-anchor="middle" class="speech">and I wrote HISPANIC"</text>
    
    <!-- Head - ANGRY -->
    <circle cx="0" cy="30" r="20" fill="none" stroke="#333" stroke-width="2"/>
    <circle cx="-7" cy="27" r="3" fill="#333"/>
    <circle cx="7" cy="27" r="3" fill="#333"/>
    <line x1="-13" y1="16" x2="-3" y2="21" stroke="#333" stroke-width="2.5"/>
    <line x1="3" y1="21" x2="13" y2="16" stroke="#333" stroke-width="2.5"/>
    <rect x="-9" y="36" width="18" height="7" fill="none" stroke="#333" stroke-width="2" rx="1"/>
    <line x1="-5" y1="36" x2="-5" y2="43" stroke="#333" stroke-width="1"/>
    <line x1="0" y1="36" x2="0" y2="43" stroke="#333" stroke-width="1"/>
    <line x1="5" y1="36" x2="5" y2="43" stroke="#333" stroke-width="1"/>
    <line x1="20" y1="10" x2="26" y2="6" stroke="#D9534F" stroke-width="2"/>
    <line x1="22" y1="16" x2="28" y2="14" stroke="#D9534F" stroke-width="2"/>
    <line x1="24" y1="6" x2="24" y2="12" stroke="#D9534F" stroke-width="2"/>
    <path d="M-20,18 Q-24,4 -10,10 Q0,0 10,10 Q24,4 20,18" fill="none" stroke="#333" stroke-width="1.5"/>
    <line x1="-16" y1="12" x2="-22" y2="2" stroke="#333" stroke-width="1"/>
    <line x1="14" y1="10" x2="22" y2="0" stroke="#333" stroke-width="1"/>
    <line x1="-4" y1="8" x2="-6" y2="-2" stroke="#333" stroke-width="1"/>
    <line x1="6" y1="6" x2="10" y2="-2" stroke="#333" stroke-width="1"/>
    <!-- Orange jumpsuit -->
    <rect x="-26" y="50" width="52" height="65" fill="#E67E22" stroke="#D35400" rx="3"/>
    <rect x="-18" y="55" width="36" height="13" fill="white" rx="1"/>
    <text x="0" y="64" text-anchor="middle" font-size="8" fill="#333">DOC #YCS-002</text>
    <rect x="-18" y="115" width="15" height="46" fill="#E67E22" stroke="#D35400" rx="2"/>
    <rect x="3" y="115" width="15" height="46" fill="#E67E22" stroke="#D35400" rx="2"/>
    <rect x="-20" y="160" width="18" height="5" fill="#8B4513" rx="1"/>
    <rect x="3" y="160" width="18" height="5" fill="#8B4513" rx="1"/>
    <!-- Arms + legal pad -->
    <line x1="-26" y1="68" x2="-42" y2="95" stroke="#E67E22" stroke-width="6"/>
    <line x1="26" y1="68" x2="48" y2="88" stroke="#E67E22" stroke-width="6"/>
    <rect x="44" y="80" width="22" height="30" fill="#FFFFAA" stroke="#E8D44D" rx="1"/>
    <line x1="46" y1="87" x2="64" y2="87" stroke="#5DADE2" stroke-width="0.5"/>
    <line x1="46" y1="92" x2="64" y2="92" stroke="#5DADE2" stroke-width="0.5"/>
    <line x1="46" y1="97" x2="64" y2="97" stroke="#5DADE2" stroke-width="0.5"/>
    <text x="55" y="106" text-anchor="middle" font-size="4" fill="#333">perjury was</text>
    <text x="55" y="110" text-anchor="middle" font-size="4" fill="#333">a bad idea</text>
    <text x="0" y="182" text-anchor="middle" class="name">LISA</text>
    <text x="0" y="196" text-anchor="middle" class="charge">RCW 9A.72 — Perjury</text>
    <text x="0" y="208" text-anchor="middle" class="charge">Wrote "Hispanic" on sworn doc</text>
  </g>
  
  <!-- ===== HOLLY — CRYING ===== -->
  <g transform="translate(500, 600)">
    <!-- Speech bubble -->
    <rect x="-70" y="-80" width="140" height="46" fill="white" stroke="#333" rx="10" stroke-width="1.5"/>
    <polygon points="0,-34 -8,-34 0,-22" fill="white" stroke="#333" stroke-width="1.5"/>
    <text x="0" y="-60" text-anchor="middle" class="speech">"The retaliation was</text>
    <text x="0" y="-46" text-anchor="middle" class="speech">my professional opinion"</text>
    
    <!-- Head - CRYING -->
    <circle cx="0" cy="30" r="20" fill="none" stroke="#333" stroke-width="2"/>
    <circle cx="-7" cy="25" r="2.5" fill="#333"/>
    <circle cx="7" cy="25" r="2.5" fill="#333"/>
    <line x1="-13" y1="17" x2="-4" y2="20" stroke="#333" stroke-width="1.5"/>
    <line x1="4" y1="20" x2="13" y2="17" stroke="#333" stroke-width="1.5"/>
    <ellipse cx="0" cy="39" rx="7" ry="5" fill="#333" stroke="#333" stroke-width="1.5"/>
    <ellipse cx="-11" cy="30" rx="2.5" ry="5" fill="#5DADE2" opacity="0.6"/>
    <ellipse cx="-12" cy="40" rx="2" ry="4" fill="#5DADE2" opacity="0.5"/>
    <ellipse cx="-13" cy="48" rx="1.5" ry="3" fill="#5DADE2" opacity="0.35"/>
    <ellipse cx="11" cy="30" rx="2.5" ry="5" fill="#5DADE2" opacity="0.6"/>
    <ellipse cx="12" cy="40" rx="2" ry="4" fill="#5DADE2" opacity="0.5"/>
    <ellipse cx="13" cy="48" rx="1.5" ry="3" fill="#5DADE2" opacity="0.35"/>
    <path d="M-20,16 Q-24,28 -20,42" fill="none" stroke="#333" stroke-width="1.5"/>
    <path d="M20,16 Q24,28 20,42" fill="none" stroke="#333" stroke-width="1.5"/>
    <path d="M-20,16 Q0,6 20,16" fill="none" stroke="#333" stroke-width="1.5"/>
    <!-- Orange jumpsuit -->
    <rect x="-26" y="50" width="52" height="65" fill="#E67E22" stroke="#D35400" rx="3"/>
    <rect x="-18" y="55" width="36" height="13" fill="white" rx="1"/>
    <text x="0" y="64" text-anchor="middle" font-size="8" fill="#333">DOC #YCS-003</text>
    <rect x="-18" y="115" width="15" height="46" fill="#E67E22" stroke="#D35400" rx="2"/>
    <rect x="3" y="115" width="15" height="46" fill="#E67E22" stroke="#D35400" rx="2"/>
    <rect x="-20" y="160" width="18" height="5" fill="#8B4513" rx="1"/>
    <rect x="3" y="160" width="18" height="5" fill="#8B4513" rx="1"/>
    <!-- Arms + spork shank -->
    <line x1="-26" y1="68" x2="-42" y2="95" stroke="#E67E22" stroke-width="6"/>
    <line x1="26" y1="68" x2="48" y2="84" stroke="#E67E22" stroke-width="6"/>
    <line x1="46" y1="78" x2="64" y2="68" stroke="#E74C3C" stroke-width="2.5"/>
    <ellipse cx="68" cy="64" rx="10" ry="5" fill="#DDD" stroke="#999" transform="rotate(-20 68 64)"/>
    <line x1="73" y1="59" x2="78" y2="54" stroke="#999" stroke-width="1.5"/>
    <line x1="68" y1="59" x2="68" y2="52" stroke="#999" stroke-width="1.5"/>
    <line x1="63" y1="59" x2="58" y2="54" stroke="#999" stroke-width="1.5"/>
    <text x="68" y="48" text-anchor="middle" font-size="7" fill="#999">spork shank</text>
    <ellipse cx="0" cy="165" rx="22" ry="4" fill="#5DADE2" opacity="0.2"/>
    <text x="0" y="182" text-anchor="middle" class="name">HOLLY</text>
    <text x="0" y="196" text-anchor="middle" class="charge">42 U.S.C. § 1983</text>
    <text x="0" y="208" text-anchor="middle" class="charge">Retaliation under color of law</text>
  </g>
  
  <!-- ===== DEEDEE ===== -->
  <g transform="translate(690, 600)">
    <!-- Speech bubble -->
    <rect x="-68" y="-80" width="136" height="46" fill="white" stroke="#333" rx="10" stroke-width="1.5"/>
    <polygon points="0,-34 -8,-34 0,-22" fill="white" stroke="#333" stroke-width="1.5"/>
    <text x="0" y="-60" text-anchor="middle" class="speech">"At least I know how</text>
    <text x="0" y="-46" text-anchor="middle" class="speech">to destroy documents"</text>
    
    <!-- Head - defeated -->
    <circle cx="0" cy="30" r="20" fill="none" stroke="#333" stroke-width="2"/>
    <circle cx="-7" cy="27" r="2.5" fill="#333"/>
    <circle cx="7" cy="27" r="2.5" fill="#333"/>
    <path d="M-9,40 Q0,36 9,40" fill="none" stroke="#333" stroke-width="1.5"/>
    <path d="M-18,18 Q0,12 18,18" fill="none" stroke="#333" stroke-width="1.5"/>
    <!-- Orange jumpsuit -->
    <rect x="-26" y="50" width="52" height="65" fill="#E67E22" stroke="#D35400" rx="3"/>
    <rect x="-18" y="55" width="36" height="13" fill="white" rx="1"/>
    <text x="0" y="64" text-anchor="middle" font-size="8" fill="#333">DOC #YCS-004</text>
    <rect x="-18" y="115" width="15" height="46" fill="#E67E22" stroke="#D35400" rx="2"/>
    <rect x="3" y="115" width="15" height="46" fill="#E67E22" stroke="#D35400" rx="2"/>
    <rect x="-20" y="160" width="18" height="5" fill="#8B4513" rx="1"/>
    <rect x="3" y="160" width="18" height="5" fill="#8B4513" rx="1"/>
    <!-- Arms + shredder blade shank -->
    <line x1="-26" y1="68" x2="-42" y2="98" stroke="#E67E22" stroke-width="6"/>
    <line x1="26" y1="68" x2="50" y2="88" stroke="#E67E22" stroke-width="6"/>
    <rect x="46" y="80" width="8" height="22" fill="#666" stroke="#333" rx="1"/>
    <polygon points="46,80 54,80 50,70" fill="#CCC" stroke="#999"/>
    <text x="68" y="84" font-size="7" fill="#999">shredder</text>
    <text x="68" y="93" font-size="7" fill="#999">blade shank</text>
    <text x="0" y="182" text-anchor="middle" class="name">DEEDEE</text>
    <text x="0" y="196" text-anchor="middle" class="charge">RCW 40.16.020</text>
    <text x="0" y="208" text-anchor="middle" class="charge">Class C Felony — Records</text>
  </g>
  
  <!-- ===== KURT — two shanks ===== -->
  <g transform="translate(880, 600)">
    <!-- Speech bubble -->
    <rect x="-72" y="-80" width="144" height="46" fill="white" stroke="#333" rx="10" stroke-width="1.5"/>
    <polygon points="0,-34 -8,-34 0,-22" fill="white" stroke="#333" stroke-width="1.5"/>
    <text x="0" y="-60" text-anchor="middle" class="speech">"I investigated my own</text>
    <text x="0" y="-46" text-anchor="middle" class="speech">grants and found no fraud"</text>
    
    <!-- Head - confused -->
    <circle cx="0" cy="30" r="20" fill="none" stroke="#333" stroke-width="2"/>
    <circle cx="-7" cy="27" r="2.5" fill="#333"/>
    <circle cx="7" cy="27" r="2.5" fill="#333"/>
    <circle cx="-7" cy="27" r="7" fill="none" stroke="#333" stroke-width="1"/>
    <circle cx="7" cy="27" r="7" fill="none" stroke="#333" stroke-width="1"/>
    <line x1="3" y1="22" x2="11" y2="32" stroke="#333" stroke-width="0.7"/>
    <line x1="5" y1="31" x2="10" y2="23" stroke="#333" stroke-width="0.7"/>
    <path d="M-8,40 L-4,38 L0,40 L4,38 L8,40" fill="none" stroke="#333" stroke-width="1.5"/>
    <!-- Orange jumpsuit -->
    <rect x="-26" y="50" width="52" height="65" fill="#E67E22" stroke="#D35400" rx="3"/>
    <rect x="-18" y="55" width="36" height="13" fill="white" rx="1"/>
    <text x="0" y="64" text-anchor="middle" font-size="8" fill="#333">DOC #YCS-005</text>
    <rect x="-18" y="115" width="15" height="46" fill="#E67E22" stroke="#D35400" rx="2"/>
    <rect x="3" y="115" width="15" height="46" fill="#E67E22" stroke="#D35400" rx="2"/>
    <rect x="-20" y="160" width="18" height="5" fill="#8B4513" rx="1"/>
    <rect x="3" y="160" width="18" height="5" fill="#8B4513" rx="1"/>
    <!-- Arms + TWO shanks -->
    <line x1="-26" y1="68" x2="-52" y2="92" stroke="#E67E22" stroke-width="6"/>
    <line x1="26" y1="68" x2="52" y2="88" stroke="#E67E22" stroke-width="6"/>
    <rect x="-62" y="84" width="7" height="22" fill="#CCC" stroke="#999" rx="1"/>
    <polygon points="-62,84 -55,84 -58,74" fill="#CCC" stroke="#999"/>
    <text x="-58" y="68" text-anchor="middle" font-size="6" fill="#999">grant $</text>
    <text x="-58" y="62" text-anchor="middle" font-size="6" fill="#999">shank</text>
    <rect x="48" y="80" width="7" height="22" fill="#CCC" stroke="#999" rx="1"/>
    <polygon points="48,80 55,80 51,70" fill="#CCC" stroke="#999"/>
    <text x="62" y="74" font-size="6" fill="#999">conflict</text>
    <text x="62" y="82" font-size="6" fill="#999">shank</text>
    <text x="0" y="182" text-anchor="middle" class="name">KURT</text>
    <text x="0" y="196" text-anchor="middle" class="charge">Title VI Grant Fraud</text>
    <text x="0" y="208" text-anchor="middle" class="charge">$8.86M in federal awards</text>
  </g>
  
  <!-- ================================================ -->
  <!-- VIDEO LINK — FULL WIDTH -->
  <!-- ================================================ -->
  <a xlink:href="https://youtu.be/iCGMqyud3eY?si=aKXt7JPIixFPcxko" target="_blank">
    <rect x="75" y="900" width="850" height="52" fill="#D9534F" stroke="#922B21" rx="10" stroke-width="2"/>
    <text x="115" y="932" font-size="24" fill="white">▶</text>
    <text x="150" y="926" font-size="15" fill="white" font-weight="bold">VOCATIONAL TRAINING VIDEO:  How to Make a Prison Shank</text>
    <text x="500" y="944" text-anchor="middle" font-size="10" fill="#FFCCCC">Click for Continuing Education Credits — YCS Staff Professional Development Program</text>
  </a>
  
  <!-- Footer -->
  <text x="500" y="1060" text-anchor="middle" class="caption">Bear Point Protocol — Vocational Outreach Division — "The claimant needs only to document" ™</text>
  <text x="500" y="1080" text-anchor="middle" font-size="9" fill="#BBB">For educational purposes only. Do not actually send to district administrators. (But imagine their faces.)</text>
</svg>
